<svg width="1200" height="800" viewBox="0 0 1200 800" fill="none" xmlns="http://www.w3.org/2000/svg">
<rect width="1200" height="800" fill="#0A1321"/>
<rect x="50" y="60" width="1100" height="680" rx="24" fill="#0F1A2E" stroke="#2C4365"/>
<path d="M120 200C260 140 360 140 500 200C640 260 760 260 900 200C980 170 1040 170 1080 190" stroke="#5BE7FF" stroke-width="6"/>
<path d="M120 290C260 230 360 230 500 290C640 350 760 350 900 290C980 260 1040 260 1080 280" stroke="#5BE7FF" stroke-width="6"/>
<path d="M120 380C260 320 360 320 500 380C640 440 760 440 900 380C980 350 1040 350 1080 370" stroke="#6E86FF" stroke-width="6"/>
<path d="M120 470C260 410 360 410 500 470C640 530 760 530 900 470C980 440 1040 440 1080 460" stroke="#6E86FF" stroke-width="6"/>
<path d="M120 560C260 500 360 500 500 560C640 620 760 620 900 560C980 530 1040 530 1080 550" stroke="#5BE7FF" stroke-width="6"/>
<text x="110" y="145" fill="#D8E6FF" font-size="38" font-family="Arial">Topographic Contour Map</text>
</svg>
