<svg width="1200" height="800" viewBox="0 0 1200 800" fill="none" xmlns="http://www.w3.org/2000/svg">
<rect width="1200" height="800" fill="#08101A"/>
<rect x="50" y="60" width="1100" height="680" rx="24" fill="#0E1726" stroke="#2A3E57"/>
<g opacity="0.95">
<circle cx="200" cy="240" r="5" fill="#5BE7FF"/><circle cx="240" cy="210" r="4" fill="#5BE7FF"/><circle cx="280" cy="260" r="4" fill="#6E86FF"/><circle cx="330" cy="230" r="5" fill="#5BE7FF"/>
<circle cx="420" cy="270" r="4" fill="#6E86FF"/><circle cx="470" cy="230" r="5" fill="#5BE7FF"/><circle cx="520" cy="300" r="4" fill="#6E86FF"/>
<circle cx="610" cy="250" r="5" fill="#5BE7FF"/><circle cx="670" cy="220" r="4" fill="#5BE7FF"/><circle cx="720" cy="280" r="5" fill="#6E86FF"/>
<circle cx="810" cy="240" r="4" fill="#5BE7FF"/><circle cx="860" cy="310" r="5" fill="#6E86FF"/><circle cx="930" cy="260" r="4" fill="#5BE7FF"/>
<circle cx="1020" cy="220" r="5" fill="#6E86FF"/>
</g>
<path d="M150 520L250 460L380 500L520 430L680 490L860 420L1040 470" stroke="#5BE7FF" stroke-width="7" stroke-linecap="round"/>
<text x="110" y="145" fill="#D8E6FF" font-size="38" font-family="Arial">LiDAR Point Cloud Preview</text>
</svg>
